<svg width="40" height="40" viewBox="0 0 40 40" fill="none" xmlns="http://www.w3.org/2000/svg">
<path fill-rule="evenodd" clip-rule="evenodd" d="M14.583 3.33337C14.583 2.64302 14.0234 2.08337 13.333 2.08337C12.6427 2.08337 12.083 2.64302 12.083 3.33337V5.83337H9C6.79086 5.83337 5 7.62424 5 9.83338V13.75H35V9.83337C35 7.62424 33.2091 5.83337 31 5.83337H27.917V3.33337C27.917 2.64302 27.3573 2.08337 26.667 2.08337C25.9766 2.08337 25.417 2.64302 25.417 3.33337V5.83337H14.583V3.33337ZM5 16.25H35V32.6667C35 34.8758 33.2091 36.6667 31 36.6667H9C6.79086 36.6667 5 34.8758 5 32.6667V16.25ZM19.9997 26.6667C20.9201 26.6667 21.6663 25.9205 21.6663 25C21.6663 24.0796 20.9201 23.3334 19.9997 23.3334C19.0792 23.3334 18.333 24.0796 18.333 25C18.333 25.9205 19.0792 26.6667 19.9997 26.6667ZM28.3333 25C28.3333 25.9205 27.5871 26.6667 26.6667 26.6667C25.7462 26.6667 25 25.9205 25 25C25 24.0796 25.7462 23.3334 26.6667 23.3334C27.5871 23.3334 28.3333 24.0796 28.3333 25ZM13.3337 26.6667C14.2541 26.6667 15.0003 25.9205 15.0003 25C15.0003 24.0796 14.2541 23.3334 13.3337 23.3334C12.4132 23.3334 11.667 24.0796 11.667 25C11.667 25.9205 12.4132 26.6667 13.3337 26.6667Z" fill="#A5206A"/>
</svg>
