<svg width="40" height="40" viewBox="0 0 40 40" fill="none" xmlns="http://www.w3.org/2000/svg">
<path fill-rule="evenodd" clip-rule="evenodd" d="M3.33398 9C3.33398 6.79086 5.12485 5 7.33398 5H32.6673C34.8765 5 36.6673 6.79086 36.6673 9V10.4165H3.33398V9ZM36.6673 17.0832V12.9165H3.33398V17.0832H36.6673ZM36.6673 19.5832H3.33398V31C3.33398 33.2091 5.12484 35 7.33398 35H32.6673C34.8765 35 36.6673 33.2091 36.6673 31V19.5832ZM10 27.5835C9.58579 27.5835 9.25 27.9193 9.25 28.3335C9.25 28.7477 9.58579 29.0835 10 29.0835H13.3333C13.7475 29.0835 14.0833 28.7477 14.0833 28.3335C14.0833 27.9193 13.7475 27.5835 13.3333 27.5835H10Z" fill="#A5206A"/>
</svg>
